<svg xmlns="http://www.w3.org/2000/svg" xmlns:xlink="http://www.w3.org/1999/xlink" width="500" zoomAndPan="magnify" viewBox="0 0 375 374.999991" height="500" preserveAspectRatio="xMidYMid meet" version="1.0"><defs><g/><clipPath id="39dfcb07c1"><path d="M 185 130.964844 L 285.890625 130.964844 L 285.890625 244 L 185 244 Z M 185 130.964844 " clip-rule="nonzero"/></clipPath><clipPath id="45e4502c23"><path d="M 89.390625 141 L 270 141 L 270 234 L 89.390625 234 Z M 89.390625 141 " clip-rule="nonzero"/></clipPath></defs><rect x="-37.5" width="450" fill="#ffffff" y="-37.499999" height="449.999989" fill-opacity="1"/><rect x="-37.5" width="450" fill="#ff7f26" y="-37.499999" height="449.999989" fill-opacity="1"/><g clip-path="url(#39dfcb07c1)"><path fill="#ffffff" d="M 229.109375 130.992188 C 211.792969 130.992188 196.292969 138.785156 185.929688 151.058594 C 195.460938 141.195312 208.828125 135.0625 223.625 135.0625 C 252.585938 135.0625 276.058594 158.539062 276.058594 187.496094 C 276.058594 216.453125 252.585938 239.929688 223.625 239.929688 C 208.828125 239.929688 195.460938 233.796875 185.929688 223.933594 C 196.292969 236.203125 211.792969 243.996094 229.109375 243.996094 C 260.316406 243.996094 285.609375 218.699219 285.609375 187.496094 C 285.609375 156.292969 260.316406 130.992188 229.109375 130.992188 " fill-opacity="1" fill-rule="nonzero"/></g><g clip-path="url(#45e4502c23)"><path fill="#ffffff" d="M 175.378906 200.417969 C 177.8125 200.417969 179.785156 198.445312 179.785156 196.011719 C 179.785156 193.578125 177.8125 191.605469 175.378906 191.605469 L 148.3125 191.605469 C 145.875 191.605469 143.902344 193.578125 143.902344 196.011719 C 143.902344 198.445312 145.875 200.417969 148.3125 200.417969 Z M 131.707031 191.605469 L 116.703125 191.605469 C 113.933594 191.605469 111.871094 194.15625 112.4375 196.867188 C 112.441406 196.898438 112.449219 196.925781 112.453125 196.957031 C 112.878906 198.976562 114.660156 200.417969 116.722656 200.417969 L 131.707031 200.417969 C 134.140625 200.417969 136.113281 198.445312 136.113281 196.011719 C 136.113281 193.578125 134.140625 191.605469 131.707031 191.605469 Z M 251.128906 175.375 C 247.957031 179.921875 244.335938 186.410156 238.210938 186.371094 C 235.507812 186.351562 232.914062 187.378906 231.515625 189.691406 L 229.972656 192.253906 L 228.257812 189.949219 L 229.558594 188.324219 C 231.25 186.21875 231.320312 183.429688 230.371094 180.898438 C 228.226562 175.164062 233.066406 169.523438 236.242188 164.980469 C 238.363281 161.941406 242.738281 157.011719 244.523438 156.695312 L 232.679688 173.65625 C 232.382812 174.085938 232.488281 174.675781 232.914062 174.972656 C 233.34375 175.273438 233.933594 175.167969 234.234375 174.738281 L 246.304688 157.449219 C 246.585938 157.046875 247.105469 156.886719 247.5625 157.0625 L 247.585938 157.070312 C 248.234375 157.320312 248.480469 158.113281 248.082031 158.683594 L 236.007812 175.976562 C 235.707031 176.40625 235.8125 176.996094 236.242188 177.296875 C 236.671875 177.59375 237.261719 177.488281 237.558594 177.0625 L 249.820312 159.5 C 250.15625 159.015625 250.824219 158.898438 251.308594 159.234375 L 251.332031 159.25 C 251.816406 159.585938 251.933594 160.257812 251.59375 160.738281 L 239.335938 178.300781 C 239.035156 178.726562 239.140625 179.320312 239.570312 179.617188 C 239.996094 179.917969 240.589844 179.8125 240.886719 179.382812 L 252.960938 162.089844 C 253.359375 161.519531 254.1875 161.476562 254.648438 162 L 254.660156 162.015625 C 254.984375 162.386719 255.011719 162.929688 254.730469 163.332031 L 242.660156 180.621094 C 242.359375 181.050781 242.46875 181.640625 242.894531 181.941406 C 243.324219 182.238281 243.914062 182.136719 244.214844 181.707031 L 256.054688 164.746094 C 256.371094 166.527344 253.25 172.335938 251.128906 175.375 Z M 245.628906 221.878906 C 243.859375 223.023438 241.492188 222.429688 240.472656 220.585938 L 227.257812 196.757812 L 212.675781 220.941406 C 211.589844 222.746094 209.203125 223.25 207.476562 222.046875 C 205.746094 220.839844 205.402344 218.421875 206.71875 216.78125 L 225.433594 193.464844 L 222.777344 188.675781 C 221.46875 186.3125 218.910156 184.964844 216.210938 185.113281 C 213.242188 185.269531 210.125 183.617188 207.121094 178.957031 C 202.5 171.792969 199.882812 160.246094 204.097656 157.527344 C 208.308594 154.804688 217.757812 161.945312 222.378906 169.109375 C 225.386719 173.765625 225.609375 177.289062 224.242188 179.925781 C 223 182.328125 223.171875 185.210938 224.785156 187.382812 L 246.574219 216.648438 C 247.832031 218.335938 247.398438 220.738281 245.628906 221.878906 Z M 223.875 141.652344 C 214.417969 141.652344 205.628906 144.519531 198.332031 149.425781 L 200.277344 149.425781 C 202.507812 149.425781 204.390625 151.171875 204.453125 153.402344 C 204.515625 155.714844 202.660156 157.609375 200.359375 157.609375 L 188.089844 157.609375 C 185.652344 157.609375 183.679688 159.582031 183.679688 162.015625 C 183.679688 164.449219 185.652344 166.421875 188.089844 166.421875 L 193.507812 166.421875 C 195.738281 166.421875 197.625 168.167969 197.683594 170.398438 C 197.75 172.710938 195.894531 174.605469 193.59375 174.605469 L 168.917969 174.605469 C 166.484375 174.605469 164.507812 176.578125 164.507812 179.011719 C 164.507812 181.445312 166.484375 183.421875 168.917969 183.421875 L 204.210938 183.421875 C 206.441406 183.421875 208.324219 185.167969 208.386719 187.394531 C 208.453125 189.710938 206.59375 191.605469 204.296875 191.605469 L 191.984375 191.605469 C 189.550781 191.605469 187.574219 193.578125 187.574219 196.011719 C 187.574219 198.445312 189.550781 200.417969 191.984375 200.417969 L 205.390625 200.417969 C 207.621094 200.417969 209.507812 202.164062 209.566406 204.394531 C 209.628906 206.707031 207.773438 208.601562 205.476562 208.601562 L 172.8125 208.601562 C 170.378906 208.601562 168.40625 210.574219 168.40625 213.007812 C 168.40625 215.441406 170.378906 217.414062 172.8125 217.414062 L 199.765625 217.414062 C 201.992188 217.414062 203.878906 219.164062 203.941406 221.390625 C 204.003906 223.703125 202.148438 225.597656 199.847656 225.597656 L 198.382812 225.597656 C 205.671875 230.484375 214.4375 233.335938 223.875 233.335938 C 249.191406 233.335938 269.714844 212.8125 269.714844 187.496094 C 269.714844 162.179688 249.191406 141.652344 223.875 141.652344 Z M 156.207031 208.601562 L 151.910156 208.601562 C 148.277344 208.601562 146.230469 212.78125 148.460938 215.644531 C 148.484375 215.671875 148.507812 215.703125 148.527344 215.730469 C 149.359375 216.789062 150.628906 217.414062 151.976562 217.414062 L 156.207031 217.414062 C 158.640625 217.414062 160.613281 215.441406 160.613281 213.007812 C 160.613281 210.574219 158.640625 208.601562 156.207031 208.601562 Z M 154.09375 166.421875 L 171.484375 166.421875 C 173.917969 166.421875 175.890625 164.449219 175.890625 162.015625 C 175.890625 159.582031 173.917969 157.609375 171.484375 157.609375 L 154.09375 157.609375 C 151.660156 157.609375 149.6875 159.582031 149.6875 162.015625 C 149.6875 164.449219 151.660156 166.421875 154.09375 166.421875 Z M 107.863281 174.605469 L 94.234375 174.605469 C 92.171875 174.605469 90.386719 176.050781 89.964844 178.070312 C 89.960938 178.097656 89.953125 178.128906 89.949219 178.15625 C 89.386719 180.871094 91.445312 183.421875 94.21875 183.421875 L 107.863281 183.421875 C 110.296875 183.421875 112.273438 181.445312 112.273438 179.011719 C 112.273438 176.578125 110.296875 174.605469 107.863281 174.605469 Z M 124.46875 183.421875 L 152.3125 183.421875 C 154.746094 183.421875 156.71875 181.445312 156.71875 179.011719 C 156.71875 176.578125 154.746094 174.605469 152.3125 174.605469 L 124.46875 174.605469 C 122.035156 174.605469 120.0625 176.578125 120.0625 179.011719 C 120.0625 181.445312 122.035156 183.421875 124.46875 183.421875 Z M 134.03125 166.421875 L 137.492188 166.421875 C 139.925781 166.421875 141.898438 164.449219 141.898438 162.015625 C 141.898438 159.582031 139.925781 157.609375 137.492188 157.609375 L 134.09375 157.609375 C 132.75 157.609375 131.480469 158.226562 130.652344 159.289062 L 130.589844 159.371094 C 128.351562 162.238281 130.394531 166.421875 134.03125 166.421875 " fill-opacity="1" fill-rule="nonzero"/></g><g fill="#f68712" fill-opacity="0.4"><g transform="translate(100.32316, 96.422002)"><g><path d="M 2.183594 -32.222656 L -4.011719 -29.640625 L 2.417969 -1.007812 L 21.601562 -9 L 20.289062 -14.765625 L 7.304688 -9.355469 Z M 2.183594 -32.222656 "/></g></g></g><g fill="#f68712" fill-opacity="0.4"><g transform="translate(118.930666, 88.742225)"><g><path d="M 2.097656 -0.710938 L 8.339844 -2.832031 L 5.121094 -23.664062 L -1.121094 -21.542969 Z M -2.230469 -27.636719 C -1.941406 -25.714844 -0.238281 -24.652344 1.574219 -25.269531 C 3.578125 -25.949219 4.625 -27.945312 4.335938 -29.867188 C 4.023438 -31.785156 2.324219 -32.84375 0.511719 -32.230469 C -1.492188 -31.550781 -2.539062 -29.554688 -2.230469 -27.636719 Z M -2.230469 -27.636719 "/></g></g></g><g fill="#f68712" fill-opacity="0.4"><g transform="translate(124.881568, 86.286749)"><g><path d="M 18.359375 -11.234375 C 17.191406 -10.046875 15.21875 -8.441406 12.121094 -7.625 C 8.671875 -6.710938 7.484375 -8.359375 7.34375 -10.15625 L 22.523438 -14.167969 C 22.269531 -22.773438 17.886719 -26.828125 10.460938 -24.863281 C 2.605469 -22.789062 -0.148438 -17.203125 0.484375 -10.863281 C 1.058594 -5.136719 4.675781 -0.609375 12.722656 -2.738281 C 17.574219 -4.019531 20.332031 -6.207031 21.960938 -8.179688 Z M 6.992188 -14.484375 C 6.839844 -16.320312 7.613281 -19.066406 11.082031 -19.984375 C 14.550781 -20.902344 15.726562 -18.667969 15.878906 -16.832031 Z M 6.992188 -14.484375 "/></g></g></g><g fill="#f68712" fill-opacity="0.4"><g transform="translate(144.595242, 80.99497)"><g><path d="M 13.9375 -28.886719 C 14.890625 -29.050781 15.816406 -29.007812 16.550781 -28.910156 L 18.246094 -33.886719 C 16.796875 -34.210938 14.855469 -34.199219 13.148438 -33.90625 C 5.542969 -32.585938 4.785156 -27.503906 4.65625 -21.878906 L 0.921875 -21.230469 L 0.917969 -16.074219 L 4.652344 -16.722656 L 4.609375 -0.796875 L 11.121094 -1.925781 L 11.164062 -17.851562 L 16.804688 -18.828125 L 16.8125 -23.984375 L 11.171875 -23.007812 C 11.207031 -26.921875 11.691406 -28.496094 13.9375 -28.886719 Z M 13.9375 -28.886719 "/></g></g></g><g fill="#f68712" fill-opacity="0.4"><g transform="translate(158.083923, 78.28619)"><g><path d="M 20.023438 -7.890625 C 18.667969 -6.925781 16.449219 -5.6875 13.253906 -5.414062 C 9.699219 -5.113281 8.816406 -6.9375 8.988281 -8.734375 L 24.632812 -10.0625 C 25.871094 -18.582031 22.25 -23.332031 14.597656 -22.683594 C 6.503906 -21.996094 2.828125 -16.96875 2.355469 -10.617188 C 1.933594 -4.878906 4.710938 0.207031 13.003906 -0.5 C 18.007812 -0.921875 21.101562 -2.601562 23.042969 -4.265625 Z M 9.390625 -13.054688 C 9.558594 -14.890625 10.792969 -17.464844 14.371094 -17.769531 C 17.945312 -18.070312 18.714844 -15.667969 18.546875 -13.835938 Z M 9.390625 -13.054688 "/></g></g></g><g fill="#f68712" fill-opacity="0.4"><g transform="translate(178.388898, 76.463)"><g><path d="M 22.855469 -20.226562 C 21.851562 -20.796875 20.179688 -21.285156 18.203125 -21.292969 C 15.664062 -21.304688 13.707031 -20.34375 12.167969 -18.515625 L 12.558594 -20.710938 L 5.945312 -20.738281 L 2.21875 0.0078125 L 8.828125 0.0351562 L 10.765625 -10.722656 C 11.382812 -14.144531 12.78125 -16.234375 15.988281 -16.222656 C 17.457031 -16.21875 18.566406 -15.769531 19.210938 -15.445312 Z M 22.855469 -20.226562 "/></g></g></g><g fill="#f68712" fill-opacity="0.4"><g transform="translate(193.321288, 76.489952)"><g><path d="M 4.105469 -7.621094 C 3.476562 -4.976562 2.253906 0.140625 9.113281 0.5625 L 11.246094 0.691406 L 12.445312 -4.324219 L 11.660156 -4.371094 C 10.050781 -4.46875 10.453125 -6.121094 10.859375 -7.8125 L 16.101562 -29.621094 L 9.503906 -30.027344 Z M 4.105469 -7.621094 "/></g></g></g><g fill="#f68712" fill-opacity="0.4"><g transform="translate(201.308827, 76.909223)"><g><path d="M 2.207031 0.21875 L 8.765625 0.875 L 14.453125 -19.421875 L 7.894531 -20.078125 Z M 9.40625 -26.085938 C 8.875 -24.214844 9.984375 -22.542969 11.890625 -22.351562 C 13.996094 -22.144531 15.773438 -23.527344 16.304688 -25.398438 C 16.816406 -27.269531 15.707031 -28.941406 13.800781 -29.128906 C 11.695312 -29.339844 9.914062 -27.957031 9.40625 -26.085938 Z M 9.40625 -26.085938 "/></g></g></g><g fill="#f68712" fill-opacity="0.4"><g transform="translate(207.728866, 77.118641)"><g><path d="M 12.382812 -8.804688 C 13.558594 -12.078125 15.28125 -13.910156 18.441406 -13.371094 C 21.597656 -12.832031 21.902344 -10.652344 20.726562 -7.375 L 17.046875 2.914062 L 23.5625 4.027344 L 27.246094 -6.261719 C 29.488281 -12.566406 27.640625 -16.949219 21.460938 -18.007812 C 18.957031 -18.433594 16.867188 -17.8125 15.046875 -16.261719 L 15.796875 -18.363281 L 9.28125 -19.476562 L 2.183594 0.375 L 8.703125 1.488281 Z M 12.382812 -8.804688 "/></g></g></g><g fill="#f68712" fill-opacity="0.4"><g transform="translate(228.098167, 80.256499)"><g><path d="M 5.953125 -9.097656 C 2.992188 -2.773438 5.53125 2.207031 11.269531 3.847656 C 14.46875 4.761719 17.203125 4.199219 19.300781 2.660156 L 18.101562 5.167969 L 24.460938 6.984375 L 38.023438 -20.917969 L 31.667969 -22.734375 L 25.925781 -10.917969 C 25.765625 -12.933594 24.414062 -15.246094 21.023438 -16.214844 C 15.285156 -17.855469 9.25 -16.160156 5.953125 -9.097656 Z M 12.308594 -7.28125 C 13.824219 -10.390625 16.761719 -12.152344 20.113281 -11.195312 C 23.464844 -10.234375 24.214844 -7.421875 22.695312 -4.3125 C 21.199219 -1.199219 18.226562 0.550781 14.875 -0.40625 C 11.519531 -1.363281 10.8125 -4.164062 12.308594 -7.28125 Z M 12.308594 -7.28125 "/></g></g></g><g fill="#f68712" fill-opacity="0.4"><g transform="translate(249.54366, 86.081089)"><g><path d="M 12.242188 5.683594 C 19.105469 8.5 25.613281 7.402344 29.507812 0.898438 C 32.894531 -4.75 31.03125 -10.351562 24.171875 -13.171875 C 17.308594 -15.988281 10.828125 -14.902344 6.910156 -8.382812 C 3.527344 -2.757812 5.382812 2.863281 12.242188 5.683594 Z M 15.011719 1.328125 C 11.601562 -0.0742188 11.1875 -2.945312 13.023438 -5.871094 C 14.878906 -8.792969 18.007812 -10.210938 21.421875 -8.808594 C 24.832031 -7.40625 25.242188 -4.535156 23.390625 -1.613281 C 21.554688 1.3125 18.425781 2.730469 15.011719 1.328125 Z M 15.011719 1.328125 "/></g></g></g><g fill="#ffffff" fill-opacity="1"><g transform="translate(100.32316, 96.422002)"><g><path d="M 2.183594 -32.222656 L -4.011719 -29.640625 L 2.417969 -1.007812 L 21.601562 -9 L 20.289062 -14.765625 L 7.304688 -9.355469 Z M 2.183594 -32.222656 "/></g></g></g><g fill="#ffffff" fill-opacity="1"><g transform="translate(118.930666, 88.742225)"><g><path d="M 2.097656 -0.710938 L 8.339844 -2.832031 L 5.121094 -23.664062 L -1.121094 -21.542969 Z M -2.230469 -27.636719 C -1.941406 -25.714844 -0.238281 -24.652344 1.574219 -25.269531 C 3.578125 -25.949219 4.625 -27.945312 4.335938 -29.867188 C 4.023438 -31.785156 2.324219 -32.84375 0.511719 -32.230469 C -1.492188 -31.550781 -2.539062 -29.554688 -2.230469 -27.636719 Z M -2.230469 -27.636719 "/></g></g></g><g fill="#ffffff" fill-opacity="1"><g transform="translate(124.881568, 86.286749)"><g><path d="M 18.359375 -11.234375 C 17.191406 -10.046875 15.21875 -8.441406 12.121094 -7.625 C 8.671875 -6.710938 7.484375 -8.359375 7.34375 -10.15625 L 22.523438 -14.167969 C 22.269531 -22.773438 17.886719 -26.828125 10.460938 -24.863281 C 2.605469 -22.789062 -0.148438 -17.203125 0.484375 -10.863281 C 1.058594 -5.136719 4.675781 -0.609375 12.722656 -2.738281 C 17.574219 -4.019531 20.332031 -6.207031 21.960938 -8.179688 Z M 6.992188 -14.484375 C 6.839844 -16.320312 7.613281 -19.066406 11.082031 -19.984375 C 14.550781 -20.902344 15.726562 -18.667969 15.878906 -16.832031 Z M 6.992188 -14.484375 "/></g></g></g><g fill="#ffffff" fill-opacity="1"><g transform="translate(144.595242, 80.99497)"><g><path d="M 13.9375 -28.886719 C 14.890625 -29.050781 15.816406 -29.007812 16.550781 -28.910156 L 18.246094 -33.886719 C 16.796875 -34.210938 14.855469 -34.199219 13.148438 -33.90625 C 5.542969 -32.585938 4.785156 -27.503906 4.65625 -21.878906 L 0.921875 -21.230469 L 0.917969 -16.074219 L 4.652344 -16.722656 L 4.609375 -0.796875 L 11.121094 -1.925781 L 11.164062 -17.851562 L 16.804688 -18.828125 L 16.8125 -23.984375 L 11.171875 -23.007812 C 11.207031 -26.921875 11.691406 -28.496094 13.9375 -28.886719 Z M 13.9375 -28.886719 "/></g></g></g><g fill="#ffffff" fill-opacity="1"><g transform="translate(158.083923, 78.28619)"><g><path d="M 20.023438 -7.890625 C 18.667969 -6.925781 16.449219 -5.6875 13.253906 -5.414062 C 9.699219 -5.113281 8.816406 -6.9375 8.988281 -8.734375 L 24.632812 -10.0625 C 25.871094 -18.582031 22.25 -23.332031 14.597656 -22.683594 C 6.503906 -21.996094 2.828125 -16.96875 2.355469 -10.617188 C 1.933594 -4.878906 4.710938 0.207031 13.003906 -0.5 C 18.007812 -0.921875 21.101562 -2.601562 23.042969 -4.265625 Z M 9.390625 -13.054688 C 9.558594 -14.890625 10.792969 -17.464844 14.371094 -17.769531 C 17.945312 -18.070312 18.714844 -15.667969 18.546875 -13.835938 Z M 9.390625 -13.054688 "/></g></g></g><g fill="#ffffff" fill-opacity="1"><g transform="translate(178.388898, 76.463)"><g><path d="M 22.855469 -20.226562 C 21.851562 -20.796875 20.179688 -21.285156 18.203125 -21.292969 C 15.664062 -21.304688 13.707031 -20.34375 12.167969 -18.515625 L 12.558594 -20.710938 L 5.945312 -20.738281 L 2.21875 0.0078125 L 8.828125 0.0351562 L 10.765625 -10.722656 C 11.382812 -14.144531 12.78125 -16.234375 15.988281 -16.222656 C 17.457031 -16.21875 18.566406 -15.769531 19.210938 -15.445312 Z M 22.855469 -20.226562 "/></g></g></g><g fill="#ffffff" fill-opacity="1"><g transform="translate(193.321288, 76.489952)"><g><path d="M 4.105469 -7.621094 C 3.476562 -4.976562 2.253906 0.140625 9.113281 0.5625 L 11.246094 0.691406 L 12.445312 -4.324219 L 11.660156 -4.371094 C 10.050781 -4.46875 10.453125 -6.121094 10.859375 -7.8125 L 16.101562 -29.621094 L 9.503906 -30.027344 Z M 4.105469 -7.621094 "/></g></g></g><g fill="#ffffff" fill-opacity="1"><g transform="translate(201.308827, 76.909223)"><g><path d="M 2.207031 0.21875 L 8.765625 0.875 L 14.453125 -19.421875 L 7.894531 -20.078125 Z M 9.40625 -26.085938 C 8.875 -24.214844 9.984375 -22.542969 11.890625 -22.351562 C 13.996094 -22.144531 15.773438 -23.527344 16.304688 -25.398438 C 16.816406 -27.269531 15.707031 -28.941406 13.800781 -29.128906 C 11.695312 -29.339844 9.914062 -27.957031 9.40625 -26.085938 Z M 9.40625 -26.085938 "/></g></g></g><g fill="#ffffff" fill-opacity="1"><g transform="translate(207.728866, 77.118641)"><g><path d="M 12.382812 -8.804688 C 13.558594 -12.078125 15.28125 -13.910156 18.441406 -13.371094 C 21.597656 -12.832031 21.902344 -10.652344 20.726562 -7.375 L 17.046875 2.914062 L 23.5625 4.027344 L 27.246094 -6.261719 C 29.488281 -12.566406 27.640625 -16.949219 21.460938 -18.007812 C 18.957031 -18.433594 16.867188 -17.8125 15.046875 -16.261719 L 15.796875 -18.363281 L 9.28125 -19.476562 L 2.183594 0.375 L 8.703125 1.488281 Z M 12.382812 -8.804688 "/></g></g></g><g fill="#ffffff" fill-opacity="1"><g transform="translate(228.098167, 80.256499)"><g><path d="M 5.953125 -9.097656 C 2.992188 -2.773438 5.53125 2.207031 11.269531 3.847656 C 14.46875 4.761719 17.203125 4.199219 19.300781 2.660156 L 18.101562 5.167969 L 24.460938 6.984375 L 38.023438 -20.917969 L 31.667969 -22.734375 L 25.925781 -10.917969 C 25.765625 -12.933594 24.414062 -15.246094 21.023438 -16.214844 C 15.285156 -17.855469 9.25 -16.160156 5.953125 -9.097656 Z M 12.308594 -7.28125 C 13.824219 -10.390625 16.761719 -12.152344 20.113281 -11.195312 C 23.464844 -10.234375 24.214844 -7.421875 22.695312 -4.3125 C 21.199219 -1.199219 18.226562 0.550781 14.875 -0.40625 C 11.519531 -1.363281 10.8125 -4.164062 12.308594 -7.28125 Z M 12.308594 -7.28125 "/></g></g></g><g fill="#ffffff" fill-opacity="1"><g transform="translate(249.54366, 86.081089)"><g><path d="M 12.242188 5.683594 C 19.105469 8.5 25.613281 7.402344 29.507812 0.898438 C 32.894531 -4.75 31.03125 -10.351562 24.171875 -13.171875 C 17.308594 -15.988281 10.828125 -14.902344 6.910156 -8.382812 C 3.527344 -2.757812 5.382812 2.863281 12.242188 5.683594 Z M 15.011719 1.328125 C 11.601562 -0.0742188 11.1875 -2.945312 13.023438 -5.871094 C 14.878906 -8.792969 18.007812 -10.210938 21.421875 -8.808594 C 24.832031 -7.40625 25.242188 -4.535156 23.390625 -1.613281 C 21.554688 1.3125 18.425781 2.730469 15.011719 1.328125 Z M 15.011719 1.328125 "/></g></g></g><path stroke-linecap="butt" transform="matrix(0.75, 0, 0, 0.75, 53.605878, 266.78597)" fill="none" stroke-linejoin="miter" d="M 18.916123 10.780166 C 17.337997 9.592666 14.811956 8.811416 11.806747 8.811416 C 6.442163 8.811416 4.306747 11.467666 3.853622 14.384333 C 3.384872 17.389542 5.061955 19.514542 9.801539 20.556208 C 12.249455 21.087458 13.431747 21.571834 13.212997 22.816625 C 12.989039 24.040584 11.874455 24.759334 9.254664 24.759334 C 7.369247 24.759334 5.400497 24.222875 3.811955 23.222875 L 1.239038 26.191625 C 2.95258 27.728084 5.478622 28.519751 8.853622 28.519751 C 13.692164 28.519751 16.989039 26.957251 17.598414 22.816625 C 18.119247 19.306208 15.853622 17.691625 11.311955 16.702042 C 9.124455 16.233291 8.020288 15.64475 8.239039 14.384333 C 8.436955 13.248916 9.504664 12.571833 11.405705 12.571833 C 13.01508 12.571833 14.603622 12.806208 16.337997 13.743708 Z M 24.035915 25.108292 C 21.650498 25.108292 20.702581 23.493709 21.077581 21.295792 C 21.468206 19.097875 22.994248 17.483292 25.374456 17.483292 C 26.73904 17.483292 28.030706 17.926 28.916123 18.76975 L 31.416123 16.608292 C 30.166123 14.983291 28.317165 14.202041 25.947373 14.202041 C 21.155706 14.202041 17.551539 16.441625 16.806747 21.295792 C 16.171331 25.4885 18.655706 28.389542 23.447373 28.389542 C 26.103623 28.389542 28.08279 27.868709 29.80154 26.514542 L 27.98904 23.754125 C 26.98904 24.431209 25.530706 25.108292 24.035915 25.108292 Z M 34.400499 21.051 C 34.791124 18.837458 35.686957 17.483292 37.759874 17.483292 C 39.827582 17.483292 40.254666 18.837458 39.869249 21.051 L 38.64529 27.998917 L 42.910916 27.998917 L 44.134874 21.051 C 44.879666 16.790583 43.223416 14.202041 39.176541 14.202041 C 37.535915 14.202041 36.275499 14.827041 35.285915 16.009333 L 36.650499 8.264541 L 32.379665 8.264541 L 28.905707 27.998917 L 33.17654 27.998917 Z M 48.681749 21.051 C 49.072375 18.837458 49.973416 17.483292 52.041125 17.483292 C 54.108833 17.483292 54.541125 18.837458 54.1505 21.051 L 52.926541 27.998917 L 57.197375 27.998917 L 58.421333 21.051 C 59.160917 16.790583 57.509875 14.202041 53.463 14.202041 C 51.822375 14.202041 50.55675 14.827041 49.567166 16.009333 L 49.817166 14.592666 L 45.546333 14.592666 L 43.186957 27.998917 L 47.457791 27.998917 Z M 69.358834 24.014542 C 68.431751 24.561417 66.936959 25.2385 64.869251 25.2385 C 62.561959 25.2385 62.093209 24.014542 62.301542 22.868709 L 72.442168 22.868709 C 73.707793 17.45725 71.634876 14.202041 66.676542 14.202041 C 61.43175 14.202041 58.785917 17.233292 58.134875 21.295792 C 57.551542 24.967667 59.061959 28.389542 64.436959 28.389542 C 67.676542 28.389542 69.759876 27.478084 71.103626 26.514542 Z M 62.796334 20.1135 C 63.004667 18.941625 63.942167 17.353083 66.259876 17.353083 C 68.577584 17.353083 68.942167 18.941625 68.733834 20.1135 Z M 72.353626 22.920792 C 72.056751 24.655167 71.468209 27.998917 75.910918 27.998917 L 77.291126 27.998917 L 77.864043 24.717667 L 77.353626 24.717667 C 76.31196 24.717667 76.509876 23.639542 76.702585 22.530167 L 79.21821 8.264541 L 74.947376 8.264541 Z M 77.869251 22.920792 C 77.567168 24.655167 76.983835 27.998917 81.421335 27.998917 L 82.801543 27.998917 L 83.37446 24.717667 L 82.864043 24.717667 C 81.822377 24.717667 82.020293 23.639542 82.213002 22.530167 L 84.728627 8.264541 L 80.457793 8.264541 Z M 100.489045 14.592666 L 100.134878 16.623917 C 99.681753 15.399958 98.431753 14.202041 96.150503 14.202041 C 92.301544 14.202041 88.848419 16.321833 88.056752 21.295792 C 87.338002 25.748917 89.801544 28.389542 93.655711 28.389542 C 95.801544 28.389542 97.400503 27.556209 98.431753 26.228084 L 98.129669 27.998917 C 97.676544 30.540584 96.348419 31.644751 93.473419 31.644751 C 91.702586 31.644751 90.202586 31.254126 88.96821 30.524959 L 86.921335 33.285376 C 88.379669 34.327043 90.765086 34.926001 92.900502 34.926001 C 97.754669 34.926001 101.436961 33.493709 102.400503 27.998917 L 104.759878 14.592666 Z M 92.327586 21.295792 C 92.718211 19.097875 94.228627 17.483292 96.478628 17.483292 C 98.728628 17.483292 99.69217 19.097875 99.301544 21.295792 C 98.926544 23.493709 97.390086 25.108292 95.134878 25.108292 C 92.884877 25.108292 91.947377 23.493709 92.327586 21.295792 Z M 114.603629 24.014542 C 113.676545 24.561417 112.181754 25.2385 110.108837 25.2385 C 107.806753 25.2385 107.338003 24.014542 107.546337 22.868709 L 117.686962 22.868709 C 118.947379 17.45725 116.879671 14.202041 111.921337 14.202041 C 106.676545 14.202041 104.030711 17.233292 103.37967 21.295792 C 102.796336 24.967667 104.306753 28.389542 109.681753 28.389542 C 112.921337 28.389542 115.004671 27.478084 116.348421 26.514542 Z M 108.041128 20.1135 C 108.249462 18.941625 109.186962 17.353083 111.50467 17.353083 C 113.822379 17.353083 114.186962 18.941625 113.978629 20.1135 Z M 117.598421 22.920792 C 117.301546 24.655167 116.713004 27.998917 121.150504 27.998917 L 122.530713 27.998917 L 123.103629 24.717667 L 122.598421 24.717667 C 121.556754 24.717667 121.749463 23.639542 121.947379 22.530167 L 124.457796 8.264541 L 120.192171 8.264541 Z M 122.197379 27.998917 L 126.457796 27.998917 L 128.811963 14.592666 L 124.556754 14.592666 Z M 125.140088 10.634333 C 124.921338 11.868708 125.739046 12.873916 126.97863 12.873916 C 128.343213 12.873916 129.395296 11.868708 129.619255 10.634333 C 129.827588 9.399958 129.004671 8.394749 127.770296 8.394749 C 126.405713 8.394749 125.348421 9.399958 125.140088 10.634333 Z M 138.85363 24.014542 C 137.926547 24.561417 136.431755 25.2385 134.364047 25.2385 C 132.056755 25.2385 131.588005 24.014542 131.796338 22.868709 L 141.936964 22.868709 C 143.202589 17.45725 141.129672 14.202041 136.171339 14.202041 C 130.926547 14.202041 128.280713 17.233292 127.629671 21.295792 C 127.046338 24.967667 128.556755 28.389542 133.931755 28.389542 C 137.176547 28.389542 139.254672 27.478084 140.598422 26.514542 Z M 132.29113 20.1135 C 132.499463 18.941625 133.436963 17.353083 135.754672 17.353083 C 138.07238 17.353083 138.436964 18.941625 138.22863 20.1135 Z M 151.561965 11.155166 C 152.186965 11.155166 152.770298 11.285374 153.228631 11.431208 L 154.853631 8.446833 C 153.968215 8.082249 152.73384 7.873916 151.614048 7.873916 C 146.629673 7.873916 145.588006 11.024958 144.884881 14.592666 L 142.436964 14.592666 L 141.864047 17.873917 L 144.311964 17.873917 L 142.525506 27.998917 L 146.796339 27.998917 L 148.582798 17.873917 L 152.275506 17.873917 L 152.848423 14.592666 L 149.155714 14.592666 C 149.608839 12.103083 150.093214 11.155166 151.561965 11.155166 Z M 162.489049 24.014542 C 161.561965 24.561417 160.067173 25.2385 157.994257 25.2385 C 155.692173 25.2385 155.223423 24.014542 155.431757 22.868709 L 165.572382 22.868709 C 166.838007 17.45725 164.76509 14.202041 159.806757 14.202041 C 154.561965 14.202041 151.916131 17.233292 151.26509 21.295792 C 150.681756 24.967667 152.192173 28.389542 157.567173 28.389542 C 160.806757 28.389542 162.89009 27.478084 164.23384 26.514542 Z M 155.926548 20.1135 C 156.134882 18.941625 157.072382 17.353083 159.39009 17.353083 C 161.707799 17.353083 162.072382 18.941625 161.864049 20.1135 Z M 177.853633 14.879125 C 177.202591 14.514541 176.119258 14.202041 174.843216 14.202041 C 173.202591 14.202041 171.942174 14.827041 170.952591 16.009333 L 171.197383 14.592666 L 166.931757 14.592666 L 164.572382 27.998917 L 168.843216 27.998917 L 170.067174 21.051 C 170.457799 18.837458 171.353633 17.483292 173.426549 17.483292 C 174.374466 17.483292 175.093216 17.76975 175.509883 17.978083 Z M 175.666133 17.873917 L 178.192175 17.873917 L 177.384883 22.426 C 176.697383 26.373917 177.853633 28.389542 181.983842 28.389542 C 183.166133 28.389542 184.338008 28.155167 185.119258 27.832251 L 184.744258 24.785375 C 184.2078 24.941625 183.556758 25.108292 182.827592 25.108292 C 181.358842 25.108292 181.421342 23.780167 181.655717 22.426 L 182.463008 17.873917 L 186.23905 17.873917 L 186.811967 14.592666 L 183.035925 14.592666 L 183.728633 10.702041 L 179.4578 10.702041 L 178.765091 14.592666 L 176.23905 14.592666 Z M 183.5203 31.618709 L 187.181759 31.618709 L 191.671342 24.561417 L 187.5203 24.561417 Z M 213.603635 10.780166 C 212.02551 9.592666 209.499468 8.811416 206.49426 8.811416 C 201.129676 8.811416 198.994259 11.467666 198.541134 14.384333 C 198.072384 17.389542 199.749468 19.514542 204.489051 20.556208 C 206.936968 21.087458 208.11926 21.571834 207.90051 22.816625 C 207.676552 24.040584 206.561968 24.759334 203.942176 24.759334 C 202.05676 24.759334 200.088009 24.222875 198.499468 23.222875 L 195.926551 26.191625 C 197.640093 27.728084 200.166134 28.519751 203.541135 28.519751 C 208.379677 28.519751 211.676552 26.957251 212.285927 22.816625 C 212.80676 19.306208 210.541135 17.691625 205.999468 16.702042 C 203.811968 16.233291 202.707801 15.64475 202.926551 14.384333 C 203.124468 13.248916 204.192176 12.571833 206.093218 12.571833 C 207.702593 12.571833 209.291135 12.806208 211.02551 13.743708 Z M 223.942178 14.592666 L 223.588011 16.623917 C 223.134886 15.399958 221.884886 14.202041 219.608844 14.202041 C 215.754677 14.202041 212.301552 16.321833 211.509885 21.295792 C 210.791135 25.748917 213.254677 28.389542 217.108844 28.389542 C 219.254677 28.389542 220.853636 27.556209 221.884886 26.228084 L 221.582803 27.998917 L 225.853636 27.998917 L 228.213011 14.592666 Z M 215.780719 21.295792 C 216.171344 19.097875 217.681761 17.483292 219.931761 17.483292 C 222.181761 17.483292 223.145303 19.097875 222.754678 21.295792 C 222.379678 23.493709 220.843219 25.108292 218.593219 25.108292 C 216.33801 25.108292 215.40051 23.493709 215.780719 21.295792 Z M 234.213012 25.108292 C 231.832803 25.108292 230.884886 23.493709 231.259886 21.295792 C 231.650512 19.097875 233.171345 17.483292 235.556762 17.483292 C 236.921345 17.483292 238.213012 17.926 239.098429 18.76975 L 241.598429 16.608292 C 240.348429 14.983291 238.49947 14.202041 236.129678 14.202041 C 231.338011 14.202041 227.733845 16.441625 226.989053 21.295792 C 226.353636 25.4885 228.838011 28.389542 233.629678 28.389542 C 236.285928 28.389542 238.265095 27.868709 239.983845 26.514542 L 238.171345 23.754125 C 237.171345 24.431209 235.713012 25.108292 234.213012 25.108292 Z M 244.582804 21.051 C 244.973429 18.837458 245.869262 17.483292 247.936971 17.483292 C 250.009888 17.483292 250.436971 18.837458 250.046346 21.051 L 248.822388 27.998917 L 253.093221 27.998917 L 254.31718 21.051 C 255.061971 16.790583 253.405721 14.202041 249.358846 14.202041 C 247.718221 14.202041 246.457804 14.827041 245.468221 16.009333 L 246.832804 8.264541 L 242.561971 8.264541 L 239.088012 27.998917 L 243.358846 27.998917 Z M 265.25468 24.014542 C 264.332805 24.561417 262.832805 25.2385 260.765097 25.2385 C 258.463013 25.2385 257.994263 24.014542 258.202597 22.868709 L 268.343222 22.868709 C 269.603639 17.45725 267.535931 14.202041 262.572389 14.202041 C 257.327597 14.202041 254.686971 17.233292 254.03593 21.295792 C 253.447388 24.967667 254.957805 28.389542 260.338013 28.389542 C 263.577597 28.389542 265.66093 27.478084 266.999472 26.514542 Z M 258.697388 20.1135 C 258.905722 18.941625 259.843222 17.353083 262.155722 17.353083 C 264.47343 17.353083 264.838014 18.941625 264.62968 20.1135 Z M 285.364057 14.592666 L 285.00989 16.623917 C 284.556765 15.399958 283.306765 14.202041 281.030723 14.202041 C 277.176556 14.202041 273.723431 16.321833 272.931764 21.295792 C 272.213014 25.748917 274.676556 28.389542 278.530723 28.389542 C 280.676556 28.389542 282.280723 27.556209 283.306765 26.228084 L 283.004682 27.998917 C 282.551557 30.540584 281.223431 31.644751 278.348431 31.644751 C 276.577598 31.644751 275.077598 31.254126 273.843223 30.524959 L 271.801556 33.285376 C 273.254681 34.327043 275.640098 34.926001 277.775515 34.926001 C 282.629682 34.926001 286.311973 33.493709 287.275515 27.998917 L 289.63489 14.592666 Z M 277.202598 21.295792 C 277.593223 19.097875 279.10364 17.483292 281.35364 17.483292 C 283.60364 17.483292 284.567182 19.097875 284.176557 21.295792 C 283.801557 23.493709 282.265098 25.108292 280.015098 25.108292 C 277.75989 25.108292 276.822389 23.493709 277.202598 21.295792 Z M 299.478641 24.014542 C 298.551558 24.561417 297.056766 25.2385 294.989057 25.2385 C 292.681766 25.2385 292.213015 24.014542 292.421349 22.868709 L 302.561974 22.868709 C 303.8276 17.45725 301.754683 14.202041 296.796349 14.202041 C 291.551557 14.202041 288.905724 17.233292 288.254682 21.295792 C 287.671349 24.967667 289.181765 28.389542 294.556766 28.389542 C 297.796349 28.389542 299.879683 27.478084 301.223433 26.514542 Z M 292.916141 20.1135 C 293.124474 18.941625 294.061974 17.353083 296.379682 17.353083 C 298.697391 17.353083 299.061974 18.941625 298.853641 20.1135 Z M 314.634892 14.592666 L 314.280725 16.623917 C 313.8276 15.399958 312.5776 14.202041 310.29635 14.202041 C 306.447391 14.202041 302.994266 16.321833 302.202599 21.295792 C 301.483849 25.748917 303.947391 28.389542 307.801558 28.389542 C 309.947392 28.389542 311.54635 27.556209 312.5776 26.228084 L 312.275517 27.998917 C 311.822392 30.540584 310.494267 31.644751 307.619266 31.644751 C 305.848433 31.644751 304.348433 31.254126 303.114058 30.524959 L 301.067183 33.285376 C 302.525516 34.327043 304.910933 34.926001 307.04635 34.926001 C 311.900517 34.926001 315.582809 33.493709 316.54635 27.998917 L 318.905726 14.592666 Z M 306.473433 21.295792 C 306.864058 19.097875 308.374475 17.483292 310.624475 17.483292 C 312.874475 17.483292 313.838017 19.097875 313.447392 21.295792 C 313.072392 23.493709 311.535933 25.108292 309.280725 25.108292 C 307.030725 25.108292 306.093225 23.493709 306.473433 21.295792 Z M 328.749476 24.014542 C 327.822393 24.561417 326.327601 25.2385 324.254684 25.2385 C 321.952601 25.2385 321.483851 24.014542 321.692184 22.868709 L 331.83281 22.868709 C 333.093226 17.45725 331.025518 14.202041 326.067184 14.202041 C 320.822392 14.202041 318.176559 17.233292 317.525517 21.295792 C 316.942184 24.967667 318.452601 28.389542 323.827601 28.389542 C 327.067184 28.389542 329.150518 27.478084 330.494268 26.514542 Z M 322.186976 20.1135 C 322.395309 18.941625 323.332809 17.353083 325.650518 17.353083 C 327.968226 17.353083 328.33281 18.941625 328.124476 20.1135 Z M 344.124477 15.686416 C 342.811977 14.748916 341.05156 14.202041 338.697394 14.202041 C 334.999477 14.202041 332.369268 15.670791 332.046351 18.420792 C 331.77031 20.7385 333.27031 22.129125 336.952602 22.858292 C 338.202602 23.092667 339.150519 23.353084 339.02031 24.14475 C 338.879685 24.899959 338.056768 25.108292 336.780727 25.108292 C 334.843227 25.108292 333.410935 24.587459 332.499476 24.040584 L 330.275518 26.644751 C 331.77031 27.972876 333.999477 28.389542 336.197393 28.389542 C 340.155727 28.389542 342.916144 27.269751 343.291144 24.14475 C 343.619269 21.493709 341.702602 20.26975 338.23906 19.577042 C 337.08281 19.342667 336.197393 19.097875 336.311977 18.420792 C 336.431768 17.780167 337.108852 17.483292 338.124477 17.483292 C 339.530727 17.483292 340.884894 17.821833 341.900519 18.290583 Z M 355.296353 15.686416 C 353.983853 14.748916 352.223436 14.202041 349.869269 14.202041 C 346.171352 14.202041 343.541144 15.670791 343.218227 18.420792 C 342.942185 20.7385 344.442186 22.129125 348.124477 22.858292 C 349.374478 23.092667 350.327603 23.353084 350.197394 24.14475 C 350.051561 24.899959 349.233853 25.108292 347.957811 25.108292 C 346.015102 25.108292 344.582811 24.587459 343.671352 24.040584 L 341.447394 26.644751 C 342.942185 27.972876 345.171352 28.389542 347.369269 28.389542 C 351.327603 28.389542 354.08802 27.269751 354.46302 24.14475 C 354.791145 21.493709 352.874478 20.26975 349.416144 19.577042 C 348.254686 19.342667 347.369269 19.097875 347.489061 18.420792 C 347.603644 17.780167 348.280727 17.483292 349.296353 17.483292 C 350.702603 17.483292 352.056769 17.821833 353.072394 18.290583 Z M 365.067187 24.014542 C 364.140104 24.561417 362.645312 25.2385 360.572395 25.2385 C 358.270311 25.2385 357.801561 24.014542 358.009895 22.868709 L 368.15052 22.868709 C 369.410937 17.45725 367.343229 14.202041 362.384895 14.202041 C 357.134895 14.202041 354.49427 17.233292 353.843228 21.295792 C 353.259894 24.967667 354.770311 28.389542 360.145312 28.389542 C 363.384895 28.389542 365.468229 27.478084 366.80677 26.514542 Z M 358.504687 20.1135 C 358.71302 18.941625 359.65052 17.353083 361.968228 17.353083 C 364.285937 17.353083 364.65052 18.941625 364.442187 20.1135 Z M 372.645312 21.051 C 373.035937 18.837458 373.931771 17.483292 376.004688 17.483292 C 378.072396 17.483292 378.504688 18.837458 378.114063 21.051 L 376.890104 27.998917 L 381.15573 27.998917 L 382.379688 21.051 C 383.12448 16.790583 381.46823 14.202041 377.421354 14.202041 C 375.780729 14.202041 374.520313 14.827041 373.530729 16.009333 L 373.775521 14.592666 L 369.504687 14.592666 L 367.15052 27.998917 L 371.421354 27.998917 Z M 372.645312 21.051 " stroke="#6f6b70" stroke-width="2.000002" stroke-opacity="1" stroke-miterlimit="4"/><g fill="#ffffff" fill-opacity="1"><g transform="translate(53.605878, 287.785968)"><g><path d="M 14.1875 -12.917969 C 13.003906 -13.804688 11.109375 -14.390625 8.855469 -14.390625 C 4.832031 -14.390625 3.230469 -12.398438 2.890625 -10.210938 C 2.539062 -7.957031 3.796875 -6.367188 7.351562 -5.585938 C 9.1875 -5.183594 10.074219 -4.824219 9.910156 -3.886719 C 9.742188 -2.96875 8.902344 -2.429688 6.941406 -2.429688 C 5.527344 -2.429688 4.050781 -2.832031 2.859375 -3.582031 L 0.925781 -1.355469 C 2.214844 -0.203125 4.109375 0.390625 6.640625 0.390625 C 10.269531 0.390625 12.742188 -0.78125 13.199219 -3.886719 C 13.589844 -6.523438 11.890625 -7.734375 8.484375 -8.472656 C 6.84375 -8.824219 6.015625 -9.265625 6.179688 -10.210938 C 6.328125 -11.0625 7.128906 -11.570312 8.550781 -11.570312 C 9.761719 -11.570312 10.953125 -11.394531 12.253906 -10.691406 Z M 14.1875 -12.917969 "/></g></g></g><g fill="#ffffff" fill-opacity="1"><g transform="translate(64.660273, 287.785968)"><g><path d="M 6.972656 -2.167969 C 5.183594 -2.167969 4.472656 -3.378906 4.753906 -5.027344 C 5.046875 -6.679688 6.191406 -7.886719 7.976562 -7.886719 C 9 -7.886719 9.96875 -7.558594 10.632812 -6.921875 L 12.507812 -8.542969 C 11.570312 -9.761719 10.183594 -10.347656 8.40625 -10.347656 C 4.8125 -10.347656 2.109375 -8.667969 1.550781 -5.027344 C 1.074219 -1.882812 2.9375 0.292969 6.53125 0.292969 C 8.523438 0.292969 10.007812 -0.0976562 11.296875 -1.113281 L 9.9375 -3.183594 C 9.1875 -2.675781 8.09375 -2.167969 6.972656 -2.167969 Z M 6.972656 -2.167969 "/></g></g></g><g fill="#ffffff" fill-opacity="1"><g transform="translate(74.21135, 287.785968)"><g><path d="M 5.195312 -5.214844 C 5.488281 -6.875 6.160156 -7.886719 7.714844 -7.886719 C 9.265625 -7.886719 9.585938 -6.875 9.292969 -5.214844 L 8.375 0 L 11.578125 0 L 12.496094 -5.214844 C 13.054688 -8.40625 11.8125 -10.347656 8.777344 -10.347656 C 7.546875 -10.347656 6.601562 -9.878906 5.859375 -8.992188 L 6.882812 -14.800781 L 3.679688 -14.800781 L 1.074219 0 L 4.277344 0 Z M 5.195312 -5.214844 "/></g></g></g><g fill="#ffffff" fill-opacity="1"><g transform="translate(84.924081, 287.785968)"><g><path d="M 5.195312 -5.214844 C 5.488281 -6.875 6.160156 -7.886719 7.714844 -7.886719 C 9.265625 -7.886719 9.585938 -6.875 9.292969 -5.214844 L 8.375 0 L 11.578125 0 L 12.496094 -5.214844 C 13.054688 -8.40625 11.8125 -10.347656 8.777344 -10.347656 C 7.546875 -10.347656 6.601562 -9.878906 5.859375 -8.992188 L 6.042969 -10.054688 L 2.839844 -10.054688 L 1.074219 0 L 4.277344 0 Z M 5.195312 -5.214844 "/></g></g></g><g fill="#ffffff" fill-opacity="1"><g transform="translate(95.636814, 287.785968)"><g><path d="M 9.988281 -2.988281 C 9.292969 -2.578125 8.171875 -2.070312 6.621094 -2.070312 C 4.890625 -2.070312 4.539062 -2.988281 4.695312 -3.847656 L 12.300781 -3.847656 C 13.25 -7.90625 11.695312 -10.347656 7.976562 -10.347656 C 4.042969 -10.347656 2.058594 -8.074219 1.570312 -5.027344 C 1.132812 -2.273438 2.265625 0.292969 6.296875 0.292969 C 8.726562 0.292969 10.289062 -0.390625 11.296875 -1.113281 Z M 5.066406 -5.917969 C 5.222656 -6.796875 5.925781 -7.984375 7.664062 -7.984375 C 9.402344 -7.984375 9.675781 -6.796875 9.519531 -5.917969 Z M 5.066406 -5.917969 "/></g></g></g><g fill="#ffffff" fill-opacity="1"><g transform="translate(106.115264, 287.785968)"><g><path d="M 1.757812 -3.808594 C 1.53125 -2.507812 1.09375 0 4.421875 0 L 5.457031 0 L 5.886719 -2.460938 L 5.507812 -2.460938 C 4.726562 -2.460938 4.871094 -3.269531 5.019531 -4.101562 L 6.902344 -14.800781 L 3.699219 -14.800781 Z M 1.757812 -3.808594 "/></g></g></g><g fill="#ffffff" fill-opacity="1"><g transform="translate(110.248538, 287.785968)"><g><path d="M 1.757812 -3.808594 C 1.53125 -2.507812 1.09375 0 4.421875 0 L 5.457031 0 L 5.886719 -2.460938 L 5.507812 -2.460938 C 4.726562 -2.460938 4.871094 -3.269531 5.019531 -4.101562 L 6.902344 -14.800781 L 3.699219 -14.800781 Z M 1.757812 -3.808594 "/></g></g></g><g fill="#ffffff" fill-opacity="1"><g transform="translate(114.381812, 287.785968)"><g/></g></g><g fill="#ffffff" fill-opacity="1"><g transform="translate(118.095328, 287.785968)"><g><path d="M 10.875 -10.054688 L 10.613281 -8.53125 C 10.269531 -9.449219 9.332031 -10.347656 7.625 -10.347656 C 4.734375 -10.347656 2.148438 -8.757812 1.550781 -5.027344 C 1.015625 -1.6875 2.859375 0.292969 5.75 0.292969 C 7.363281 0.292969 8.5625 -0.332031 9.332031 -1.328125 L 9.109375 0 C 8.765625 1.902344 7.773438 2.734375 5.613281 2.734375 C 4.285156 2.734375 3.164062 2.441406 2.234375 1.894531 L 0.703125 3.964844 C 1.796875 4.746094 3.582031 5.195312 5.183594 5.195312 C 8.824219 5.195312 11.589844 4.121094 12.3125 0 L 14.078125 -10.054688 Z M 4.753906 -5.027344 C 5.046875 -6.679688 6.179688 -7.886719 7.867188 -7.886719 C 9.558594 -7.886719 10.28125 -6.679688 9.988281 -5.027344 C 9.703125 -3.378906 8.550781 -2.167969 6.863281 -2.167969 C 5.175781 -2.167969 4.472656 -3.378906 4.753906 -5.027344 Z M 4.753906 -5.027344 "/></g></g></g><g fill="#ffffff" fill-opacity="1"><g transform="translate(129.569482, 287.785968)"><g><path d="M 9.988281 -2.988281 C 9.292969 -2.578125 8.171875 -2.070312 6.621094 -2.070312 C 4.890625 -2.070312 4.539062 -2.988281 4.695312 -3.847656 L 12.300781 -3.847656 C 13.25 -7.90625 11.695312 -10.347656 7.976562 -10.347656 C 4.042969 -10.347656 2.058594 -8.074219 1.570312 -5.027344 C 1.132812 -2.273438 2.265625 0.292969 6.296875 0.292969 C 8.726562 0.292969 10.289062 -0.390625 11.296875 -1.113281 Z M 5.066406 -5.917969 C 5.222656 -6.796875 5.925781 -7.984375 7.664062 -7.984375 C 9.402344 -7.984375 9.675781 -6.796875 9.519531 -5.917969 Z M 5.066406 -5.917969 "/></g></g></g><g fill="#ffffff" fill-opacity="1"><g transform="translate(140.047933, 287.785968)"><g><path d="M 1.757812 -3.808594 C 1.53125 -2.507812 1.09375 0 4.421875 0 L 5.457031 0 L 5.886719 -2.460938 L 5.507812 -2.460938 C 4.726562 -2.460938 4.871094 -3.269531 5.019531 -4.101562 L 6.902344 -14.800781 L 3.699219 -14.800781 Z M 1.757812 -3.808594 "/></g></g></g><g fill="#ffffff" fill-opacity="1"><g transform="translate(144.181206, 287.785968)"><g><path d="M 1.074219 0 L 4.265625 0 L 6.035156 -10.054688 L 2.839844 -10.054688 Z M 3.28125 -13.023438 C 3.113281 -12.097656 3.730469 -11.34375 4.65625 -11.34375 C 5.683594 -11.34375 6.472656 -12.097656 6.640625 -13.023438 C 6.796875 -13.953125 6.179688 -14.703125 5.253906 -14.703125 C 4.226562 -14.703125 3.4375 -13.953125 3.28125 -13.023438 Z M 3.28125 -13.023438 "/></g></g></g><g fill="#ffffff" fill-opacity="1"><g transform="translate(147.758057, 287.785968)"><g><path d="M 9.988281 -2.988281 C 9.292969 -2.578125 8.171875 -2.070312 6.621094 -2.070312 C 4.890625 -2.070312 4.539062 -2.988281 4.695312 -3.847656 L 12.300781 -3.847656 C 13.25 -7.90625 11.695312 -10.347656 7.976562 -10.347656 C 4.042969 -10.347656 2.058594 -8.074219 1.570312 -5.027344 C 1.132812 -2.273438 2.265625 0.292969 6.296875 0.292969 C 8.726562 0.292969 10.289062 -0.390625 11.296875 -1.113281 Z M 5.066406 -5.917969 C 5.222656 -6.796875 5.925781 -7.984375 7.664062 -7.984375 C 9.402344 -7.984375 9.675781 -6.796875 9.519531 -5.917969 Z M 5.066406 -5.917969 "/></g></g></g><g fill="#ffffff" fill-opacity="1"><g transform="translate(158.236501, 287.785968)"><g><path d="M 9.039062 -12.632812 C 9.507812 -12.632812 9.949219 -12.535156 10.289062 -12.429688 L 11.511719 -14.664062 C 10.847656 -14.9375 9.917969 -15.09375 9.078125 -15.09375 C 5.339844 -15.09375 4.558594 -12.730469 4.03125 -10.054688 L 2.195312 -10.054688 L 1.765625 -7.597656 L 3.601562 -7.597656 L 2.265625 0 L 5.46875 0 L 6.804688 -7.597656 L 9.578125 -7.597656 L 10.007812 -10.054688 L 7.234375 -10.054688 C 7.578125 -11.921875 7.9375 -12.632812 9.039062 -12.632812 Z M 9.039062 -12.632812 "/></g></g></g><g fill="#ffffff" fill-opacity="1"><g transform="translate(165.483792, 287.785968)"><g><path d="M 9.988281 -2.988281 C 9.292969 -2.578125 8.171875 -2.070312 6.621094 -2.070312 C 4.890625 -2.070312 4.539062 -2.988281 4.695312 -3.847656 L 12.300781 -3.847656 C 13.25 -7.90625 11.695312 -10.347656 7.976562 -10.347656 C 4.042969 -10.347656 2.058594 -8.074219 1.570312 -5.027344 C 1.132812 -2.273438 2.265625 0.292969 6.296875 0.292969 C 8.726562 0.292969 10.289062 -0.390625 11.296875 -1.113281 Z M 5.066406 -5.917969 C 5.222656 -6.796875 5.925781 -7.984375 7.664062 -7.984375 C 9.402344 -7.984375 9.675781 -6.796875 9.519531 -5.917969 Z M 5.066406 -5.917969 "/></g></g></g><g fill="#ffffff" fill-opacity="1"><g transform="translate(175.962243, 287.785968)"><g><path d="M 11.03125 -9.839844 C 10.542969 -10.113281 9.734375 -10.347656 8.777344 -10.347656 C 7.546875 -10.347656 6.601562 -9.878906 5.859375 -8.992188 L 6.042969 -10.054688 L 2.839844 -10.054688 L 1.074219 0 L 4.277344 0 L 5.195312 -5.214844 C 5.488281 -6.875 6.160156 -7.886719 7.714844 -7.886719 C 8.425781 -7.886719 8.960938 -7.675781 9.273438 -7.519531 Z M 11.03125 -9.839844 "/></g></g></g><g fill="#ffffff" fill-opacity="1"><g transform="translate(183.590244, 287.785968)"><g><path d="M 1.765625 -7.597656 L 3.660156 -7.597656 L 3.054688 -4.179688 C 2.539062 -1.21875 3.40625 0.292969 6.503906 0.292969 C 7.390625 0.292969 8.269531 0.117188 8.855469 -0.125 L 8.570312 -2.410156 C 8.171875 -2.292969 7.683594 -2.167969 7.136719 -2.167969 C 6.035156 -2.167969 6.082031 -3.164062 6.257812 -4.179688 L 6.863281 -7.597656 L 9.695312 -7.597656 L 10.125 -10.054688 L 7.292969 -10.054688 L 7.808594 -12.976562 L 4.609375 -12.976562 L 4.089844 -10.054688 L 2.195312 -10.054688 Z M 1.765625 -7.597656 "/></g></g></g><g fill="#ffffff" fill-opacity="1"><g transform="translate(191.052295, 287.785968)"><g><path d="M 0.195312 2.714844 L 2.9375 2.714844 L 6.308594 -2.578125 L 3.191406 -2.578125 Z M 0.195312 2.714844 "/></g></g></g><g fill="#ffffff" fill-opacity="1"><g transform="translate(195.907943, 287.785968)"><g/></g></g><g fill="#ffffff" fill-opacity="1"><g transform="translate(199.621459, 287.785968)"><g><path d="M 14.1875 -12.917969 C 13.003906 -13.804688 11.109375 -14.390625 8.855469 -14.390625 C 4.832031 -14.390625 3.230469 -12.398438 2.890625 -10.210938 C 2.539062 -7.957031 3.796875 -6.367188 7.351562 -5.585938 C 9.1875 -5.183594 10.074219 -4.824219 9.910156 -3.886719 C 9.742188 -2.96875 8.902344 -2.429688 6.941406 -2.429688 C 5.527344 -2.429688 4.050781 -2.832031 2.859375 -3.582031 L 0.925781 -1.355469 C 2.214844 -0.203125 4.109375 0.390625 6.640625 0.390625 C 10.269531 0.390625 12.742188 -0.78125 13.199219 -3.886719 C 13.589844 -6.523438 11.890625 -7.734375 8.484375 -8.472656 C 6.84375 -8.824219 6.015625 -9.265625 6.179688 -10.210938 C 6.328125 -11.0625 7.128906 -11.570312 8.550781 -11.570312 C 9.761719 -11.570312 10.953125 -11.394531 12.253906 -10.691406 Z M 14.1875 -12.917969 "/></g></g></g><g fill="#ffffff" fill-opacity="1"><g transform="translate(210.675856, 287.785968)"><g><path d="M 10.886719 -10.054688 L 10.621094 -8.53125 C 10.28125 -9.449219 9.34375 -10.347656 7.636719 -10.347656 C 4.746094 -10.347656 2.15625 -8.757812 1.5625 -5.027344 C 1.023438 -1.6875 2.871094 0.292969 5.761719 0.292969 C 7.371094 0.292969 8.570312 -0.332031 9.34375 -1.328125 L 9.117188 0 L 12.320312 0 L 14.089844 -10.054688 Z M 4.765625 -5.027344 C 5.058594 -6.679688 6.191406 -7.886719 7.878906 -7.886719 C 9.566406 -7.886719 10.289062 -6.679688 9.996094 -5.027344 C 9.714844 -3.378906 8.5625 -2.167969 6.875 -2.167969 C 5.183594 -2.167969 4.480469 -3.378906 4.765625 -5.027344 Z M 4.765625 -5.027344 "/></g></g></g><g fill="#ffffff" fill-opacity="1"><g transform="translate(222.296438, 287.785968)"><g><path d="M 6.972656 -2.167969 C 5.183594 -2.167969 4.472656 -3.378906 4.753906 -5.027344 C 5.046875 -6.679688 6.191406 -7.886719 7.976562 -7.886719 C 9 -7.886719 9.96875 -7.558594 10.632812 -6.921875 L 12.507812 -8.542969 C 11.570312 -9.761719 10.183594 -10.347656 8.40625 -10.347656 C 4.8125 -10.347656 2.109375 -8.667969 1.550781 -5.027344 C 1.074219 -1.882812 2.9375 0.292969 6.53125 0.292969 C 8.523438 0.292969 10.007812 -0.0976562 11.296875 -1.113281 L 9.9375 -3.183594 C 9.1875 -2.675781 8.09375 -2.167969 6.972656 -2.167969 Z M 6.972656 -2.167969 "/></g></g></g><g fill="#ffffff" fill-opacity="1"><g transform="translate(231.847516, 287.785968)"><g><path d="M 5.195312 -5.214844 C 5.488281 -6.875 6.160156 -7.886719 7.714844 -7.886719 C 9.265625 -7.886719 9.585938 -6.875 9.292969 -5.214844 L 8.375 0 L 11.578125 0 L 12.496094 -5.214844 C 13.054688 -8.40625 11.8125 -10.347656 8.777344 -10.347656 C 7.546875 -10.347656 6.601562 -9.878906 5.859375 -8.992188 L 6.882812 -14.800781 L 3.679688 -14.800781 L 1.074219 0 L 4.277344 0 Z M 5.195312 -5.214844 "/></g></g></g><g fill="#ffffff" fill-opacity="1"><g transform="translate(242.560249, 287.785968)"><g><path d="M 9.988281 -2.988281 C 9.292969 -2.578125 8.171875 -2.070312 6.621094 -2.070312 C 4.890625 -2.070312 4.539062 -2.988281 4.695312 -3.847656 L 12.300781 -3.847656 C 13.25 -7.90625 11.695312 -10.347656 7.976562 -10.347656 C 4.042969 -10.347656 2.058594 -8.074219 1.570312 -5.027344 C 1.132812 -2.273438 2.265625 0.292969 6.296875 0.292969 C 8.726562 0.292969 10.289062 -0.390625 11.296875 -1.113281 Z M 5.066406 -5.917969 C 5.222656 -6.796875 5.925781 -7.984375 7.664062 -7.984375 C 9.402344 -7.984375 9.675781 -6.796875 9.519531 -5.917969 Z M 5.066406 -5.917969 "/></g></g></g><g fill="#ffffff" fill-opacity="1"><g transform="translate(253.038688, 287.785968)"><g/></g></g><g fill="#ffffff" fill-opacity="1"><g transform="translate(256.752204, 287.785968)"><g><path d="M 10.875 -10.054688 L 10.613281 -8.53125 C 10.269531 -9.449219 9.332031 -10.347656 7.625 -10.347656 C 4.734375 -10.347656 2.148438 -8.757812 1.550781 -5.027344 C 1.015625 -1.6875 2.859375 0.292969 5.75 0.292969 C 7.363281 0.292969 8.5625 -0.332031 9.332031 -1.328125 L 9.109375 0 C 8.765625 1.902344 7.773438 2.734375 5.613281 2.734375 C 4.285156 2.734375 3.164062 2.441406 2.234375 1.894531 L 0.703125 3.964844 C 1.796875 4.746094 3.582031 5.195312 5.183594 5.195312 C 8.824219 5.195312 11.589844 4.121094 12.3125 0 L 14.078125 -10.054688 Z M 4.753906 -5.027344 C 5.046875 -6.679688 6.179688 -7.886719 7.867188 -7.886719 C 9.558594 -7.886719 10.28125 -6.679688 9.988281 -5.027344 C 9.703125 -3.378906 8.550781 -2.167969 6.863281 -2.167969 C 5.175781 -2.167969 4.472656 -3.378906 4.753906 -5.027344 Z M 4.753906 -5.027344 "/></g></g></g><g fill="#ffffff" fill-opacity="1"><g transform="translate(268.226347, 287.785968)"><g><path d="M 9.988281 -2.988281 C 9.292969 -2.578125 8.171875 -2.070312 6.621094 -2.070312 C 4.890625 -2.070312 4.539062 -2.988281 4.695312 -3.847656 L 12.300781 -3.847656 C 13.25 -7.90625 11.695312 -10.347656 7.976562 -10.347656 C 4.042969 -10.347656 2.058594 -8.074219 1.570312 -5.027344 C 1.132812 -2.273438 2.265625 0.292969 6.296875 0.292969 C 8.726562 0.292969 10.289062 -0.390625 11.296875 -1.113281 Z M 5.066406 -5.917969 C 5.222656 -6.796875 5.925781 -7.984375 7.664062 -7.984375 C 9.402344 -7.984375 9.675781 -6.796875 9.519531 -5.917969 Z M 5.066406 -5.917969 "/></g></g></g><g fill="#ffffff" fill-opacity="1"><g transform="translate(278.704786, 287.785968)"><g><path d="M 10.875 -10.054688 L 10.613281 -8.53125 C 10.269531 -9.449219 9.332031 -10.347656 7.625 -10.347656 C 4.734375 -10.347656 2.148438 -8.757812 1.550781 -5.027344 C 1.015625 -1.6875 2.859375 0.292969 5.75 0.292969 C 7.363281 0.292969 8.5625 -0.332031 9.332031 -1.328125 L 9.109375 0 C 8.765625 1.902344 7.773438 2.734375 5.613281 2.734375 C 4.285156 2.734375 3.164062 2.441406 2.234375 1.894531 L 0.703125 3.964844 C 1.796875 4.746094 3.582031 5.195312 5.183594 5.195312 C 8.824219 5.195312 11.589844 4.121094 12.3125 0 L 14.078125 -10.054688 Z M 4.753906 -5.027344 C 5.046875 -6.679688 6.179688 -7.886719 7.867188 -7.886719 C 9.558594 -7.886719 10.28125 -6.679688 9.988281 -5.027344 C 9.703125 -3.378906 8.550781 -2.167969 6.863281 -2.167969 C 5.175781 -2.167969 4.472656 -3.378906 4.753906 -5.027344 Z M 4.753906 -5.027344 "/></g></g></g><g fill="#ffffff" fill-opacity="1"><g transform="translate(290.178929, 287.785968)"><g><path d="M 9.988281 -2.988281 C 9.292969 -2.578125 8.171875 -2.070312 6.621094 -2.070312 C 4.890625 -2.070312 4.539062 -2.988281 4.695312 -3.847656 L 12.300781 -3.847656 C 13.25 -7.90625 11.695312 -10.347656 7.976562 -10.347656 C 4.042969 -10.347656 2.058594 -8.074219 1.570312 -5.027344 C 1.132812 -2.273438 2.265625 0.292969 6.296875 0.292969 C 8.726562 0.292969 10.289062 -0.390625 11.296875 -1.113281 Z M 5.066406 -5.917969 C 5.222656 -6.796875 5.925781 -7.984375 7.664062 -7.984375 C 9.402344 -7.984375 9.675781 -6.796875 9.519531 -5.917969 Z M 5.066406 -5.917969 "/></g></g></g><g fill="#ffffff" fill-opacity="1"><g transform="translate(300.657367, 287.785968)"><g><path d="M 11.042969 -9.234375 C 10.054688 -9.9375 8.738281 -10.347656 6.972656 -10.347656 C 4.199219 -10.347656 2.226562 -9.246094 1.980469 -7.1875 C 1.777344 -5.449219 2.898438 -4.402344 5.664062 -3.855469 C 6.601562 -3.679688 7.3125 -3.484375 7.214844 -2.890625 C 7.109375 -2.324219 6.492188 -2.167969 5.535156 -2.167969 C 4.082031 -2.167969 3.007812 -2.558594 2.324219 -2.96875 L 0.652344 -1.015625 C 1.777344 -0.0195312 3.445312 0.292969 5.097656 0.292969 C 8.0625 0.292969 10.132812 -0.546875 10.417969 -2.890625 C 10.660156 -4.882812 9.226562 -5.800781 6.628906 -6.316406 C 5.761719 -6.492188 5.097656 -6.679688 5.183594 -7.1875 C 5.273438 -7.664062 5.78125 -7.886719 6.542969 -7.886719 C 7.597656 -7.886719 8.609375 -7.636719 9.371094 -7.285156 Z M 11.042969 -9.234375 "/></g></g></g><g fill="#ffffff" fill-opacity="1"><g transform="translate(309.037029, 287.785968)"><g><path d="M 11.042969 -9.234375 C 10.054688 -9.9375 8.738281 -10.347656 6.972656 -10.347656 C 4.199219 -10.347656 2.226562 -9.246094 1.980469 -7.1875 C 1.777344 -5.449219 2.898438 -4.402344 5.664062 -3.855469 C 6.601562 -3.679688 7.3125 -3.484375 7.214844 -2.890625 C 7.109375 -2.324219 6.492188 -2.167969 5.535156 -2.167969 C 4.082031 -2.167969 3.007812 -2.558594 2.324219 -2.96875 L 0.652344 -1.015625 C 1.777344 -0.0195312 3.445312 0.292969 5.097656 0.292969 C 8.0625 0.292969 10.132812 -0.546875 10.417969 -2.890625 C 10.660156 -4.882812 9.226562 -5.800781 6.628906 -6.316406 C 5.761719 -6.492188 5.097656 -6.679688 5.183594 -7.1875 C 5.273438 -7.664062 5.78125 -7.886719 6.542969 -7.886719 C 7.597656 -7.886719 8.609375 -7.636719 9.371094 -7.285156 Z M 11.042969 -9.234375 "/></g></g></g><g fill="#ffffff" fill-opacity="1"><g transform="translate(317.41669, 287.785968)"><g><path d="M 9.988281 -2.988281 C 9.292969 -2.578125 8.171875 -2.070312 6.621094 -2.070312 C 4.890625 -2.070312 4.539062 -2.988281 4.695312 -3.847656 L 12.300781 -3.847656 C 13.25 -7.90625 11.695312 -10.347656 7.976562 -10.347656 C 4.042969 -10.347656 2.058594 -8.074219 1.570312 -5.027344 C 1.132812 -2.273438 2.265625 0.292969 6.296875 0.292969 C 8.726562 0.292969 10.289062 -0.390625 11.296875 -1.113281 Z M 5.066406 -5.917969 C 5.222656 -6.796875 5.925781 -7.984375 7.664062 -7.984375 C 9.402344 -7.984375 9.675781 -6.796875 9.519531 -5.917969 Z M 5.066406 -5.917969 "/></g></g></g><g fill="#ffffff" fill-opacity="1"><g transform="translate(327.895128, 287.785968)"><g><path d="M 5.195312 -5.214844 C 5.488281 -6.875 6.160156 -7.886719 7.714844 -7.886719 C 9.265625 -7.886719 9.585938 -6.875 9.292969 -5.214844 L 8.375 0 L 11.578125 0 L 12.496094 -5.214844 C 13.054688 -8.40625 11.8125 -10.347656 8.777344 -10.347656 C 7.546875 -10.347656 6.601562 -9.878906 5.859375 -8.992188 L 6.042969 -10.054688 L 2.839844 -10.054688 L 1.074219 0 L 4.277344 0 Z M 5.195312 -5.214844 "/></g></g></g><g fill="#ffffff" fill-opacity="1"><g transform="translate(338.617582, 287.785968)"><g/></g></g></svg>